<svg height="480pt" viewBox="0 0 480 480" width="480pt" xmlns="http://www.w3.org/2000/svg"><path d="m88 176v-16h-32v56c0 66.273438 53.726562 120 120 120v-72c-48.601562 0-88-39.398438-88-88zm0 0" fill="#fdb62f"/><path d="m264 160v16c0 48.601562-39.398438 88-88 88v72c66.273438 0 120-53.726562 120-120v-56zm0 0" fill="#fdb62f"/><path d="m328 192v-96c0-13.253906 10.746094-24 24-24h96c13.253906 0 24 10.746094 24 24v48c0 13.253906-10.746094 24-24 24h-96c-13.253906 0-24 10.746094-24 24zm0 0" fill="#6cbbc7"/><path d="m8 424h464v48h-464zm0 0" fill="#6cbbc7"/><path d="m24 312v112h304v-112c0-26.507812-21.492188-48-48-48h-208c-26.507812 0-48 21.492188-48 48zm0 0" fill="#c6bede"/><path d="m200 264v24c0 13.253906-10.746094 24-24 24v112h152v-112c0-26.507812-21.492188-48-48-48zm0 0" fill="#715dad"/><path d="m120 312c13.253906 0 24 10.746094 24 24s-10.746094 24-24 24-24-10.746094-24-24 10.746094-24 24-24zm0 0" fill="#808080"/><path d="m152 248h48v40c0 13.253906-10.746094 24-24 24s-24-10.746094-24-24zm0 0" fill="#ffdaaa"/><path d="m88 64h176v112c0 48.601562-39.398438 88-88 88s-88-39.398438-88-88zm0 0" fill="#ffe9cc"/><path d="m152 200h48v8c0 13.253906-10.746094 24-24 24s-24-10.746094-24-24zm0 0" fill="#ff421d"/><path d="m88 104h80c22.089844 0 40-17.910156 40-40 0 22.089844 17.910156 40 40 40h16v80h32v-56c0-66.273438-53.726562-120-120-120s-120 53.726562-120 120v56h32zm0 0" fill="#fdb62f"/><path d="m200 336h16v16h-16zm0 0"/><path d="m200 376h16v16h-16zm0 0"/><path d="m208 152c0-4.417969 3.582031-8 8-8s8 3.582031 8 8v8h16v-8c0-13.253906-10.746094-24-24-24s-24 10.746094-24 24v8h16zm0 0"/><path d="m144 160h16v-8c0-13.253906-10.746094-24-24-24s-24 10.746094-24 24v8h16v-8c0-4.417969 3.582031-8 8-8s8 3.582031 8 8zm0 0"/><path d="m208 208v-16h-64v16c0 17.671875 14.328125 32 32 32s32-14.328125 32-32zm-48 0h32c0 8.835938-7.164062 16-16 16s-16-7.164062-16-16zm0 0"/><path d="m336 312c-.015625-24.539062-16.003906-46.210938-39.449219-53.464844 4.898438-13.648437 7.417969-28.035156 7.449219-42.535156v-88c0-70.691406-57.308594-128-128-128s-128 57.308594-128 128v88c.03125 14.5 2.550781 28.886719 7.449219 42.535156-23.445313 7.253906-39.433594 28.925782-39.449219 53.464844v104h-16v64h480v-64h-144zm-16 0v104h-32v-80h-16v80h-88v-97.015625c1.070312-.3125 2.128906-.679687 3.160156-1.105469.511719-.191406 1.039063-.320312 1.542969-.535156 1.753906-.757812 3.433594-1.671875 5.023437-2.726562.351563-.234376.65625-.527344 1-.800782 1.210938-.863281 2.355469-1.808594 3.433594-2.832031.488282-.472656.910156-.984375 1.367188-1.480469.855468-.910156 1.65625-1.867187 2.402344-2.871094.429687-.59375.796874-1.199218 1.207031-1.824218.640625-1.03125 1.222656-2.101563 1.742187-3.199219.3125-.65625.625-1.304687.898438-1.992187.46875-1.238282.863281-2.5 1.175781-3.785157.160156-.625.359375-1.214843.480469-1.847656.375-1.972656.566406-3.976563.566406-5.984375v-16h72c1.605469.011719 3.207031.117188 4.800781.320312 20.078125 2.425782 35.183594 19.457032 35.199219 39.679688zm-160-40h32v16c0 8.835938-7.164062 16-16 16s-16-7.164062-16-16zm-64-96v-64h72c1.871094-.011719 3.742188-.132812 5.601562-.359375.574219-.066406 1.132813-.175781 1.703126-.265625 1.28125-.199219 2.542968-.429688 3.785156-.734375.613281-.144531 1.230468-.304687 1.839844-.472656 1.238281-.351563 2.453124-.753907 3.65625-1.199219.503906-.183594 1.015624-.351562 1.511718-.554688 1.640625-.667968 3.242188-1.429687 4.796875-2.277343.183594-.105469.351563-.226563.539063-.328125 1.367187-.773438 2.703125-1.609375 4-2.511719.460937-.328125.910156-.679687 1.367187-1.023437.984375-.746094 1.941407-1.519532 2.871094-2.335938.449219-.394531.886719-.800781 1.328125-1.210938.953125-.902343 1.847656-1.847656 2.726562-2.824218.3125-.351563.648438-.6875.953126-1.046875 1.144531-1.351563 2.210937-2.761719 3.199218-4.230469l.121094-.121094.097656.128906c.988282 1.46875 2.054688 2.878907 3.199219 4.230469.304687.359375.640625.695313.949219 1.046875.875.976563 1.777344 1.921875 2.730468 2.824219.429688.410156.878907.800781 1.328126 1.210937.925781.796876 1.886718 1.597657 2.871093 2.335938.457031.34375.894531.695312 1.367188 1.023438 1.28125.894531 2.613281 1.734374 4 2.511718.183593.105469.351562.222656.535156.328125 1.558594.847657 3.160156 1.609375 4.800781 2.28125.496094.199219 1.007813.367188 1.511719.550781 1.203125.449219 2.402344.847657 3.65625 1.199219.609375.167969 1.21875.328125 1.839844.472657 1.25.296874 2.503906.535156 3.785156.734374.566406.089844 1.128906.191407 1.703125.265626 1.867188.226562 3.746094.34375 5.625.351562h8v64c0 44.183594-35.816406 80-80 80s-80-35.816406-80-80zm-32-48c0-61.855469 50.144531-112 112-112s112 50.144531 112 112v88c.011719 13.675781-2.507812 27.238281-7.433594 40h-51.550781c.089844-.0625.167969-.136719.257813-.191406 2.933593-1.976563 5.753906-4.113282 8.453124-6.402344.746094-.621094 1.425782-1.300781 2.144532-1.949219 1.9375-1.730469 3.808594-3.511719 5.601562-5.394531.800782-.878906 1.648438-1.78125 2.449219-2.695312 1.597656-1.839844 3.199219-3.742188 4.644531-5.703126.691406-.910156 1.402344-1.808593 2.058594-2.742187 1.800781-2.574219 3.480469-5.238281 5.03125-8 .199219-.355469.441406-.691406.632812-1.042969 1.699219-3.136718 3.21875-6.363281 4.558594-9.671875.398438-.976562.71875-1.976562 1.089844-2.96875.894531-2.398437 1.710938-4.871093 2.398438-7.375.335937-1.207031.648437-2.398437.9375-3.640625.589843-2.496094 1.070312-5.03125 1.46875-7.589844.179687-1.136718.386718-2.265624.523437-3.410156.460937-3.722656.707031-7.46875.734375-11.222656v-80h-24c-17.671875 0-32-14.328125-32-32h-16c0 17.671875-14.328125 32-32 32h-88v80c.019531 3.761719.261719 7.515625.71875 11.246094.136719 1.152344.34375 2.273437.519531 3.410156.402344 2.566406.875 5.105469 1.472657 7.609375.289062 1.214844.601562 2.398437.9375 3.621094.703124 2.511719 1.519531 4.960937 2.398437 7.386719.367187.992187.6875 1.992187 1.089844 2.964843 1.335937 3.308594 2.859375 6.539063 4.558593 9.671875.191407.363282.433594.691406.632813 1.042969 1.546875 2.746094 3.222656 5.414063 5.03125 8 .65625.933594 1.359375 1.832031 2.054687 2.742187 1.480469 1.960938 3.027344 3.863282 4.648438 5.710938.800781.914062 1.601562 1.808594 2.449219 2.691406 1.792969 1.878906 3.664062 3.664063 5.601562 5.398438.71875.648437 1.398438 1.328125 2.144531 1.945312 2.699219 2.285156 5.519532 4.421875 8.453126 6.398438.089843.0625.167968.136718.257812.191406h-51.535156c-4.929688-12.769531-7.449219-26.34375-7.433594-40.03125zm-32 184c.015625-20.222656 15.121094-37.253906 35.199219-39.679688 1.59375-.203124 3.195312-.308593 4.800781-.320312h72v16c.011719 2.015625.214844 4.023438.609375 6 .117187.632812.328125 1.230469.480469 1.847656.3125 1.285156.703125 2.546875 1.175781 3.785156.269531.679688.582031 1.328126.894531 1.992188.519532 1.097656 1.101563 2.167969 1.742188 3.199219.394531.625.800781 1.230469 1.210937 1.824219.742188 1.003906 1.542969 1.960937 2.398438 2.871093.457031.496094.878906 1.007813 1.367187 1.480469 1.078125 1.023438 2.226563 1.96875 3.433594 2.832031.34375.246094.648438.542969 1 .800781 1.589844 1.058594 3.269531 1.96875 5.023438 2.726563.496093.214844 1.03125.34375 1.542968.535156 1.035156.425781 2.089844.792969 3.160156 1.105469v97h-88.039062v-48c.011719-7.910156 3.917969-15.308594 10.449219-19.777344 6.351562 15.0625 23.03125 22.914063 38.683593 18.214844 15.65625-4.699219 25.253907-20.441406 22.257813-36.507812-2.90625-15.046876-16.070313-25.917969-31.390625-25.929688-5.4375.019531-10.777344 1.441406-15.503906 4.128906-8.628906 4.789063-14.566406 13.289063-16.089844 23.039063-14.78125 6.277343-24.386719 20.773437-24.40625 36.832031v48h-32zm74.214844 16c1.46875-2.464844 3.558594-4.5 6.066406-5.894531 4.460938-2.457031 9.820312-2.644531 14.441406-.503907 4.621094 2.140626 7.945313 6.351563 8.957032 11.34375.207031 1.003907.316406 2.027344.320312 3.054688.03125 7.238281-4.816406 13.589844-11.808594 15.46875-6.988281 1.878906-14.367187-1.1875-17.96875-7.46875h13.777344v-16zm357.785156 104v32h-448v-32zm0 0"/><path d="m448 64h-96c-17.671875 0-32 14.328125-32 32v96c0 4.417969 3.582031 8 8 8s8-3.582031 8-8c0-8.835938 7.164062-16 16-16h96c17.671875 0 32-14.328125 32-32v-48c0-17.671875-14.328125-32-32-32zm16 80c0 8.835938-7.164062 16-16 16h-96c-5.621094-.007812-11.140625 1.476562-16 4.296875v-68.296875c0-8.835938 7.164062-16 16-16h96c8.835938 0 16 7.164062 16 16zm0 0"/><path d="m392 112h16v16h-16zm0 0"/><path d="m424 112h16v16h-16zm0 0"/><path d="m360 112h16v16h-16zm0 0"/></svg>